<?xml version="1.0" encoding="UTF-8" standalone="no"?>
<svg
   version="1.1"
   width="50"
   height="50"
   style="clip-rule:evenodd;fill-rule:evenodd;image-rendering:optimizeQuality;shape-rendering:geometricPrecision;text-rendering:geometricPrecision"
   id="svg343"
   xmlns="http://www.w3.org/2000/svg"
   xmlns:svg="http://www.w3.org/2000/svg">
  <defs
     id="defs343" />
  <path
     id="path157"
     d="m 25.421993,7.5677266 c -2.78,0.3615 -5.44601,1.02801 -8,2 -2.946,3.1220004 -5.77901,6.4560104 -8.4999992,10.0000004 -1.917,19.80999 6.5830192,26.31 25.4999992,19.5 4.95099,-4.00199 7.951,-9.169 9,-15.5 -1.74,-9.90299 -7.74001,-15.2370004 -18,-16.0000004 z m 1,12.0000004 c 5.28399,2.102 6.28399,5.43601 3,10 -2.361,0.174 -4.69401,0.50701 -7,1 -3.392,-5.36399 -2.059,-9.03 4,-11 z"
     style="fill:#fcd121;fill-opacity:1" />
  <path
     fill="#fdde63"
     d="m 29.422243,29.567737 c -1.851,1.366 -2.184,3.033 -1,5 1.909,-0.848 3.909,-1.182 6,-1 0.17,1.322 -0.163,2.489 -1,3.5 -3.29,-0.369 -6.623,-0.369 -10,0 -0.333,0.333 -0.667,0.667 -1,1 1.049,0.492 2.049,0.326 3,-0.5 0.808,0.308 1.475,0.808 2,1.5 -2.646,0.497 -5.313,0.664 -8,0.5 0,-1 0,-2 0,-3 -3.365,1.333 -6.032,0.333 -8,-3 0.167,-0.333 0.333,-0.667 0.5,-1 1.019,1.187 2.186,2.187 3.5,3 0.692,-0.525 1.192,-1.192 1.5,-2 1.391,2.215 3.057,2.215 5,0 0.483,-0.948 0.649,-1.948 0.5,-3 2.306,-0.493 4.639,-0.826 7,-1 z"
     id="path174" />
</svg>
