<?xml version="1.0" encoding="UTF-8"?>
<!DOCTYPE svg PUBLIC "-//W3C//DTD SVG 1.1//EN" "http://www.w3.org/Graphics/SVG/1.1/DTD/svg11.dtd">
<svg xmlns="http://www.w3.org/2000/svg" version="1.1" width="2000px" height="2000px" style="shape-rendering:geometricPrecision; text-rendering:geometricPrecision; image-rendering:optimizeQuality; fill-rule:evenodd; clip-rule:evenodd" xmlns:xlink="http://www.w3.org/1999/xlink">
<g><path style="opacity:0.988" fill="aliceblue" d="M 1488.5,118.5 C 1489.27,119.263 1489.77,120.263 1490,121.5C 1502.39,217.35 1503.72,313.35 1494,409.5C 1485.49,479.776 1477.49,550.11 1470,620.5C 1467.5,649.116 1466,677.783 1465.5,706.5C 1590.15,713.64 1714.49,724.473 1838.5,739C 1851.35,740.627 1863.68,743.961 1875.5,749C 1869.59,750.464 1863.59,751.464 1857.5,752C 1726.82,754.024 1596.15,753.191 1465.5,749.5C 1463.31,824.44 1457.48,899.107 1448,973.5C 1431.33,1107.37 1411.16,1240.71 1387.5,1373.5C 1445.84,1380.92 1504.17,1388.42 1562.5,1396C 1607.58,1404.95 1652.58,1414.28 1697.5,1424C 1713.66,1426.88 1729.82,1429.38 1746,1431.5C 1762.17,1422.24 1778,1423.07 1793.5,1434C 1805.46,1445.98 1810.3,1460.48 1808,1477.5C 1806.5,1490 1800,1498.84 1788.5,1504C 1771.67,1509.94 1754.33,1511.94 1736.5,1510C 1718.31,1508.63 1700.31,1505.97 1682.5,1502C 1657,1495.96 1631.67,1489.29 1606.5,1482C 1529.77,1465.27 1452.44,1452.1 1374.5,1442.5C 1352.74,1563.8 1326.57,1684.13 1296,1803.5C 1283.26,1830.29 1262.09,1841.46 1232.5,1837C 1203.5,1827.87 1189.67,1808.03 1191,1777.5C 1224.43,1662.12 1254.26,1545.78 1280.5,1428.5C 1169.98,1408.03 1060.32,1383.53 951.5,1355C 881.167,1336 810.833,1317 740.5,1298C 704.254,1289.55 667.754,1282.38 631,1276.5C 629.674,1276.75 628.674,1277.42 628,1278.5C 611.844,1355.28 595.177,1431.95 578,1508.5C 571.799,1531.64 565.133,1554.64 558,1577.5C 540.058,1630.32 522.725,1683.32 506,1736.5C 504.628,1717.85 503.461,1699.18 502.5,1680.5C 503.055,1674.84 503.555,1669.17 504,1663.5C 515.491,1609.87 526.825,1556.2 538,1502.5C 548.912,1424.53 560.412,1346.7 572.5,1269C 517.032,1262.07 461.366,1257.41 405.5,1255C 311.498,1251.59 217.498,1248.26 123.5,1245C 146.35,1238.1 169.683,1233.1 193.5,1230C 275.558,1219.96 357.891,1216.63 440.5,1220C 486.609,1221.34 532.609,1224.17 578.5,1228.5C 593.165,1132.34 606.665,1036.01 619,939.5C 627.393,872.343 633.893,805.009 638.5,737.5C 609.143,736.999 579.81,735.832 550.5,734C 487.179,729.477 423.846,725.144 360.5,721C 317.497,719.352 274.497,718.018 231.5,717C 206.055,707.842 196.555,690.009 203,663.5C 212.863,642.648 229.363,633.981 252.5,637.5C 283.204,638.224 313.871,639.724 344.5,642C 412.209,647.871 479.876,654.204 547.5,661C 579.458,663.856 611.458,666.022 643.5,667.5C 649.932,537.41 643.932,407.91 625.5,279C 628.901,248.267 646.068,231.767 677,229.5C 702.862,232.696 718.529,247.029 724,272.5C 736.224,385.261 738.891,498.261 732,611.5C 730.963,630.563 729.463,649.563 727.5,668.5C 796.871,668.913 866.205,670.747 935.5,674C 1090.08,683.15 1244.58,692.65 1399,702.5C 1401.94,663.902 1406.94,625.569 1414,587.5C 1428.31,514.285 1441.98,440.952 1455,367.5C 1462.44,309.22 1469.44,250.887 1476,192.5C 1479.63,167.729 1483.8,143.063 1488.5,118.5 Z M 829.5,734.5 C 887.172,734.919 944.839,735.752 1002.5,737C 1129.16,740.733 1255.82,744.066 1382.5,747C 1387.2,747.172 1391.87,747.672 1396.5,748.5C 1381.96,889.74 1361.13,1030.07 1334,1169.5C 1321.74,1232.97 1308.91,1296.3 1295.5,1359.5C 1202.02,1345.77 1109.02,1329.27 1016.5,1310C 932.058,1291.47 847.724,1272.47 763.5,1253C 721.719,1245.29 679.719,1239.13 637.5,1234.5C 664.717,1107.91 687.884,980.581 707,852.5C 712.456,814.231 717.289,775.898 721.5,737.5C 757.656,736.366 793.656,735.366 829.5,734.5 Z"/></g>
<g><path style="opacity:0.974" fill="aliceblue" d="M 945.5,241.5 C 955.689,240.059 963.856,243.392 970,251.5C 994.076,304.319 1020.24,355.985 1048.5,406.5C 1099.82,366.36 1149.82,324.527 1198.5,281C 1213.83,274.992 1224.66,279.492 1231,294.5C 1233.21,303.629 1231.04,311.463 1224.5,318C 1171.95,358.9 1118.62,398.567 1064.5,437C 1096.97,496.443 1125.8,557.61 1151,620.5C 1156.05,633.959 1160.05,647.625 1163,661.5C 1117.92,594.35 1074.58,526.017 1033,456.5C 999.138,479.325 963.971,500.158 927.5,519C 917.725,523.554 907.725,527.554 897.5,531C 885.862,533.219 874.196,534.885 862.5,536C 916.246,503.801 967.912,468.634 1017.5,430.5C 986.527,378.643 957.361,325.643 930,271.5C 926.484,256.862 931.651,246.862 945.5,241.5 Z"/></g>
<g><path style="opacity:0.974" fill="aliceblue" d="M 328.5,279.5 C 367.168,278.248 402.835,287.748 435.5,308C 480.481,346.114 512.981,392.948 533,448.5C 554.933,535.219 522.1,587.386 434.5,605C 362.115,618.483 296.448,603.483 237.5,560C 219.57,546.415 205.736,529.582 196,509.5C 186.542,488.585 186.208,467.585 195,446.5C 197.667,443.833 200.333,441.167 203,438.5C 195.421,465.357 199.421,490.357 215,513.5C 237.819,541.846 266.652,561.679 301.5,573C 331.413,583.015 362.079,586.348 393.5,583C 420.768,581.767 446.435,574.767 470.5,562C 499.37,543.77 511.537,517.603 507,483.5C 502.029,457.895 492.363,434.229 478,412.5C 462.756,389.91 445.256,369.077 425.5,350C 405.732,333.068 382.732,323.735 356.5,322C 329.864,319.948 304.198,323.948 279.5,334C 267.49,339.35 257.99,347.517 251,358.5C 249.339,365.444 248.006,372.444 247,379.5C 239.514,391.773 229.014,395.273 215.5,390C 208.475,385.624 204.475,379.291 203.5,371C 204.779,347.137 214.446,327.47 232.5,312C 261.061,291.091 293.061,280.257 328.5,279.5 Z"/></g>
<g><path style="opacity:0.974" fill="aliceblue" d="M 965.5,842.5 C 1005.03,839.637 1042.03,847.803 1076.5,867C 1093.92,879.756 1109.42,894.59 1123,911.5C 1151.11,944.675 1171.11,982.342 1183,1024.5C 1197.02,1093.65 1170.86,1139.49 1104.5,1162C 1024.68,1184.1 951.343,1171.1 884.5,1123C 868.993,1110.78 856.159,1096.28 846,1079.5C 833.705,1056.36 832.372,1032.69 842,1008.5C 844.391,1005.4 847.224,1003.24 850.5,1002C 841.591,1030.13 846.091,1055.96 864,1079.5C 886.862,1106.67 915.362,1125.5 949.5,1136C 997.894,1150.06 1046.23,1149.73 1094.5,1135C 1142.92,1117.67 1161.75,1083.84 1151,1033.5C 1142.22,1003.94 1128.22,977.271 1109,953.5C 1095.21,936.71 1080.38,920.876 1064.5,906C 1042.17,891.171 1017.5,883.671 990.5,883.5C 968.7,883.76 947.7,887.927 927.5,896C 914.173,901.335 904.006,910.169 897,922.5C 895.855,927.083 895.189,931.749 895,936.5C 890.538,951.479 880.704,957.312 865.5,954C 855.332,950.169 850.332,942.835 850.5,932C 853.439,900.121 869.106,876.788 897.5,862C 919.031,851.121 941.698,844.621 965.5,842.5 Z"/></g>
<g><path style="opacity:0.975" fill="aliceblue" d="M 771.5,1385.5 C 782.345,1384.05 790.845,1387.72 797,1396.5C 820.894,1448.95 846.894,1500.29 875,1550.5C 926.004,1510.17 975.838,1468.34 1024.5,1425C 1043.45,1418.81 1054.79,1425.47 1058.5,1445C 1057.94,1451.7 1055.27,1457.37 1050.5,1462C 998.129,1502.88 944.796,1542.38 890.5,1580.5C 921.574,1637.31 949.408,1695.65 974,1755.5C 979.908,1771.89 985.408,1788.39 990.5,1805C 988.887,1805.09 987.72,1804.26 987,1802.5C 942.834,1736.18 900.168,1668.85 859,1600.5C 825.138,1623.32 789.971,1644.16 753.5,1663C 733.389,1673.35 712.055,1679.02 689.5,1680C 742.95,1647.62 794.284,1612.29 843.5,1574C 812.436,1522.05 783.269,1468.89 756,1414.5C 752.769,1400.29 757.936,1390.63 771.5,1385.5 Z"/></g>
<g><path style="opacity:0.974" fill="aliceblue" d="M 1556.5,1551.5 C 1597.11,1547.99 1635.11,1556.15 1670.5,1576C 1675.83,1580 1681.17,1584 1686.5,1588C 1722.68,1622.19 1750.18,1662.36 1769,1708.5C 1778.43,1733.06 1781.76,1758.39 1779,1784.5C 1771.87,1824.3 1749.37,1851.47 1711.5,1866C 1673.51,1878.96 1634.51,1883.3 1594.5,1879C 1547,1872.85 1505,1854.52 1468.5,1824C 1450.58,1808.33 1438.08,1789.16 1431,1766.5C 1426.74,1749.66 1428.07,1733.32 1435,1717.5C 1437.35,1714.98 1439.85,1712.65 1442.5,1710.5C 1434.59,1740.38 1440.43,1767.38 1460,1791.5C 1491.81,1825.49 1530.98,1845.99 1577.5,1853C 1619.38,1858.57 1660.05,1853.9 1699.5,1839C 1743.28,1816.21 1757.45,1781.05 1742,1733.5C 1730.61,1702.81 1714.28,1675.14 1693,1650.5C 1679.76,1635.26 1665.26,1621.43 1649.5,1609C 1607.96,1589.01 1565.63,1587.34 1522.5,1604C 1508.95,1608.89 1498.45,1617.39 1491,1629.5C 1489.33,1637.17 1487.67,1644.83 1486,1652.5C 1477.4,1664.13 1466.57,1666.63 1453.5,1660C 1447.32,1655.64 1443.99,1649.64 1443.5,1642C 1446.15,1610.68 1461.15,1587.35 1488.5,1572C 1509.92,1560.58 1532.58,1553.75 1556.5,1551.5 Z"/></g>
</svg>
